<?xml version="1.0" standalone="no"?>
<!DOCTYPE svg PUBLIC "-//W3C//DTD SVG 20010904//EN"
 "http://www.w3.org/TR/2001/REC-SVG-20010904/DTD/svg10.dtd">
<svg version="1.0" xmlns="http://www.w3.org/2000/svg"
 width="1280.000000pt" height="990.000000pt" viewBox="0 0 1280.000000 990.000000"
 preserveAspectRatio="xMidYMid meet">
<metadata>
Created by potrace 1.15, written by Peter Selinger 2001-2017
</metadata>
<g transform="translate(0.000000,990.000000) scale(0.100000,-0.100000)"
fill="#000000" stroke="none">
<path d="M6676 9874 l-26 -27 0 -1573 0 -1573 24 -28 24 -28 1082 -3 1081 -2
-7 -83 c-4 -45 -16 -181 -28 -302 l-21 -220 -212 -3 c-194 -2 -213 -4 -213
-20 -1 -16 -1 -16 -11 0 -14 25 -174 25 -188 0 -10 -16 -10 -16 -11 1 0 13 -9
17 -40 17 -27 0 -40 -4 -40 -14 0 -7 -13 -16 -29 -19 -33 -7 -47 -45 -36 -97
l7 -30 -779 2 -778 3 -5 786 -5 786 -29 37 c-16 21 -47 47 -70 57 -40 18 -103
19 -1786 19 -1683 0 -1746 -1 -1786 -19 -23 -10 -54 -36 -70 -57 l-29 -37 -5
-786 -5 -786 -99 -3 c-55 -1 -103 1 -109 7 -5 5 -1 17 12 30 21 21 21 29 21
361 0 294 -2 341 -15 346 -18 7 -20 31 -2 36 9 4 13 54 15 196 3 170 2 192
-12 192 -9 0 -16 -1 -17 -2 0 -2 -6 -37 -13 -78 -13 -74 -13 -73 -15 128 l-1
202 -90 0 -90 0 0 -79 c0 -67 3 -80 17 -84 17 -4 17 -5 1 -6 -15 -1 -18 -12
-18 -75 0 -63 3 -75 17 -79 17 -4 17 -5 1 -6 -12 -1 -18 -10 -19 -28 0 -27 -1
-27 -9 -5 -5 12 -16 22 -25 22 -10 0 -15 10 -15 30 0 23 -4 30 -20 30 -16 0
-20 -7 -20 -30 0 -16 -4 -30 -10 -30 -5 0 -16 -15 -25 -34 -14 -29 -15 -47 -5
-131 6 -54 8 -100 5 -103 -3 -3 -5 0 -5 6 0 49 -25 183 -47 256 l-28 90 -7
-40 c-4 -21 -7 -64 -8 -94 l-1 -55 -30 55 -30 55 7 -89 c3 -49 16 -125 29
-168 19 -66 21 -80 9 -85 -12 -4 -14 -62 -14 -344 0 -326 1 -340 20 -359 29
-29 25 -42 -12 -38 l-33 3 -3 123 -3 122 -205 0 -205 0 15 22 c13 18 16 51 16
153 0 102 -3 135 -16 153 -15 22 -15 22 36 22 l51 0 -3 93 -3 92 -30 3 c-23 2
-34 11 -45 35 -18 39 -19 164 -2 195 7 12 10 27 7 32 -4 6 -193 10 -513 10
-443 0 -510 -2 -530 -16 -20 -14 -22 -23 -22 -115 0 -55 5 -109 10 -120 10
-19 4 -19 -270 -19 l-280 0 0 -95 0 -95 108 0 108 0 17 -58 c19 -65 22 -147 6
-207 -24 -93 -26 -85 25 -85 l45 0 3 -122 3 -123 -41 -26 c-74 -48 -93 -136
-44 -214 31 -50 56 -59 170 -65 l105 -5 3 -2782 2 -2783 135 0 135 0 0 835 0
835 1825 0 1825 0 0 -323 0 -324 -72 -22 c-281 -87 -490 -139 -638 -160 -41
-6 -165 -15 -275 -21 -207 -10 -270 -21 -350 -61 -87 -43 -145 -138 -161 -260
-5 -34 -18 -68 -36 -94 -42 -59 -55 -148 -39 -257 20 -134 55 -174 114 -128
23 18 27 19 61 5 53 -22 72 -19 101 19 59 78 79 197 51 306 -8 30 -12 58 -8
61 9 8 211 52 367 80 111 20 130 20 255 9 163 -14 275 -34 344 -62 28 -11 87
-26 131 -34 52 -9 108 -28 160 -54 100 -51 162 -59 250 -35 35 9 84 30 109 45
30 20 69 32 123 40 43 7 107 23 143 37 130 49 428 83 551 63 84 -14 332 -65
389 -80 l39 -10 -13 -38 c-36 -102 -25 -216 30 -309 29 -51 59 -61 112 -40 35
14 39 14 65 -5 70 -51 117 33 117 208 0 89 -15 146 -53 197 -16 21 -26 51 -30
88 -8 80 -41 151 -96 202 -85 80 -151 94 -536 117 -222 13 -512 77 -805 178
l-55 19 -3 321 -2 322 3640 0 3640 0 0 -835 0 -835 135 0 135 0 0 835 0 835
85 0 85 0 2 1948 3 1947 107 5 c119 6 146 17 179 80 37 68 15 154 -50 197
l-34 23 -597 0 c-522 0 -599 2 -604 15 -4 12 -26 15 -104 15 l-98 0 4 36 c4
29 -1 41 -24 66 -35 36 -67 51 -159 73 -63 14 -75 14 -144 -1 -133 -29 -196
-76 -189 -141 l4 -33 -98 0 c-78 0 -100 -3 -104 -15 -5 -12 -28 -15 -118 -15
l-113 0 -34 42 c-19 24 -39 52 -44 63 -6 11 -21 21 -33 23 -12 2 -22 10 -22
17 0 10 -21 14 -89 14 -76 0 -91 -3 -94 -17 -4 -16 -5 -16 -6 0 -1 15 -13 17
-87 17 -65 0 -86 -3 -91 -14 -7 -20 -63 -20 -63 0 0 23 -87 21 -93 -2 -4 -17
-5 -17 -6 0 -1 13 -10 17 -45 17 -34 0 -46 -4 -49 -17 -4 -17 -5 -17 -6 0 -1
11 -9 17 -26 17 -30 0 -28 -8 -55 295 -11 127 -22 249 -26 273 l-5 42 1076 0
c1175 0 1119 -3 1144 57 8 21 11 428 9 1591 l-3 1564 -28 24 -28 24 -2473 0
-2473 0 -27 -26z m-4353 -2631 c-7 -2 -21 -2 -30 0 -10 3 -4 5 12 5 17 0 24
-2 18 -5z m0 -100 c-7 -2 -21 -2 -30 0 -10 3 -4 5 12 5 17 0 24 -2 18 -5z m0
-100 c-7 -2 -21 -2 -30 0 -10 3 -4 5 12 5 17 0 24 -2 18 -5z m-10 -100 c-7 -2
-19 -2 -25 0 -7 3 -2 5 12 5 14 0 19 -2 13 -5z m-149 -153 c5 -41 4 -61 -2
-55 -5 6 -12 44 -15 85 -5 87 7 66 17 -30z m149 -57 c-7 -2 -19 -2 -25 0 -7 3
-2 5 12 5 14 0 19 -2 13 -5z m-133 -99 c0 -31 -23 -28 -28 4 -2 15 2 22 12 22
11 0 16 -9 16 -26z m143 -1 c-7 -2 -19 -2 -25 0 -7 3 -2 5 12 5 14 0 19 -2 13
-5z"/>
</g>
</svg>
